<svg xmlns="http://www.w3.org/2000/svg" version="1.1" xmlns:xlink="http://www.w3.org/1999/xlink" xmlns:svgjs="http://svgjs.dev/svgjs" width="100%" height="100%" viewBox="0 0 1000 600"><rect width="1000" height="600" x="0" y="0" fill="red"/><g><circle r="166.66666666666666" cx="426.64676920572913" cy="448.8690604809548" fill="#ffff" transform="matrix(0.48080591334928974,0,0,0.48080591334928974,0,84.18110247753037)"/><path d="M481.7500022848256 478.4074384076603L495.8618059047459 490.21110023467446Q485.5482102984688 505.3454983198064 469.65417061060816 514.6072824761516Q453.7893479074679 523.8690666324969 432.11034524498166 523.8690666324969L432.11034524498166 523.8690666324969Q411.51237101714764 523.8690666324969 394.36200098631275 514.2858956442279Q377.2116309554779 504.7027246559591 367.33629012000574 487.66922256400557Q357.4317322998132 470.635720472052 357.4317322998132 449.1904536873284L357.4317322998132 449.1904536873284Q357.4317322998132 427.10241323875744 367.10255424224306 409.9520432079226Q376.8025931693933 392.8016731770877 392.98880270445716 383.3353701277002Q409.17501223952104 373.86906707831264 427.9030994452538 373.86906707831264L427.9030994452538 373.86906707831264Q443.0667145151061 373.86906707831264 454.72429141851853 379.33264322101473Q466.41108530665133 384.79621936371683 474.38732213530193 394.70077718390934L474.38732213530193 394.70077718390934L474.6210580130646 376.8199825350662L494.16722079096667 376.8199825350662L494.16722079096667 423.7132430111989L480.289153048809 424.99879033889357Q465.1547549636771 391.34082394107116 431.0585337950497 391.34082394107116L431.0585337950497 391.34082394107116Q417.3849849459343 391.34082394107116 405.7274080425219 398.38211725867114Q394.0406141543891 405.4234105762711 386.99932083678914 418.5710537004205Q379.9580275191891 431.7186968245699 379.9580275191891 448.95671780956576L379.9580275191891 448.95671780956576Q379.9580275191891 465.3766632223923 386.8824528979078 478.3197874534994Q393.8360952613468 491.2629116846064 405.7274080425219 498.62559183413003Q417.58950383897667 505.9882719836537 432.11034524498166 505.9882719836537L432.11034524498166 505.9882719836537Q449.14384733693515 505.9882719836537 461.0351601181103 498.62559183413003Q472.9264728992854 491.2629116846064 481.7500022848256 478.4074384076603L481.7500022848256 478.4074384076603Z " fill="red" transform="matrix(0.48080591334928974,0,0,0.48080591334928974,0,84.18110247753037)"/><path d="M821.9443924379015 421.01192390208803L802.2122486846615 421.01192390208803L802.2122486846615 391.6369225680792L725.9324833158018 391.6369225680792L725.9324833158018 438.5714485090436L759.8015324729467 438.5714485090436L759.8015324729467 418.66073331912276L776.9443903943136 418.66073331912276L776.9443903943136 474.7916882491537L759.8015324729467 474.7916882491537L759.8015324729467 454.85121115311944L725.9324833158018 454.85121115311944L725.9324833158018 503.0654990569636L802.2122486846615 503.0654990569636L802.2122486846615 473.72025962906827L821.9443924379015 473.72025962906827L821.9443924379015 520.8631189128271L676.6467667918723 520.8631189128271L676.6467667918723 503.0654990569636L704.0872442285046 503.0654990569636L704.0872442285046 391.6369225680792L676.6467667918723 391.6369225680792L676.6467667918723 373.8690646183292L821.9443924379015 373.8690646183292L821.9443924379015 421.01192390208803ZM951.7955888110325 436.87501986057504L916.6467776910079 469.01787846313783L952.4503507455291 504.136927677049L965.9324942149374 504.136927677049L965.9324942149374 521.0714522556215L908.9384440076154 521.0714522556215L908.9384440076154 505.65478488883673L926.7360638634789 505.65478488883673L902.0932056015141 480.35716469237525L876.140823470556 505.65478488883673L895.4265386320936 505.65478488883673L895.4265386320936 521.0714522556215L842.7182029051133 521.0714522556215L842.7182029051133 504.136927677049L856.6467749662239 504.136927677049L892.4503480207452 471.57740238889744L856.8551083090183 436.87501986057504L842.7182029051133 436.87501986057504L842.7182029051133 419.9404952820026L900.1586817041376 419.9404952820026L900.1586817041376 435.3571626487873L882.1527285054798 435.3571626487873L906.5872534246502 460.20835425354653L932.093206963906 435.3571626487873L913.6408251735459 435.3571626487873L913.6408251735459 419.9404952820026L965.9324942149374 419.9404952820026L965.9324942149374 436.87501986057504L951.7955888110325 436.87501986057504ZM1070.0694037060182 490.8631175504351L1079.5039279439925 504.5833562687513Q1059.5932127540718 523.869071430289 1033.0158305947305 523.869071430289L1033.0158305947305 523.869071430289Q1018.8789251908256 523.869071430289 1006.4384484353893 517.232166366982Q993.9979716799528 510.5654993975616 986.497971339355 498.48216551548705Q978.997970998757 486.369069727299 978.997970998757 470.7143071116064L978.997970998757 470.7143071116064Q978.997970998757 455.9226397732048 985.8729713109717 443.60121064222244Q992.718209717073 431.27978151124 1004.2955911952183 424.2262097623443Q1015.8729726733636 417.1428761073351 1029.355116142772 417.1428761073351L1029.355116142772 417.1428761073351Q1050.7836885444806 417.1428761073351 1062.807498614328 432.35121013132544L1062.807498614328 432.35121013132544L1062.807498614328 419.9404952820026L1078.0158326383184 419.9404952820026L1078.0158326383184 455.29763974482165L1068.9979750859327 455.9226397732048Q1058.5217841339863 434.4940673714963 1035.5753545204902 434.4940673714963L1035.5753545204902 434.4940673714963Q1025.724163596927 434.4940673714963 1017.8074965707401 439.10716281908634Q1009.8610676384399 443.72025826667635 1005.3670198153038 451.875020541771Q1000.8729719921678 460.00002091075214 1000.8729719921678 470.505973768812L1000.8729719921678 470.505973768812Q1000.8729719921678 480.8035932840775 1005.6944007825522 488.92859365305867Q1010.5158295729366 497.0833559281533 1018.3432108807829 501.4583561268355Q1026.1408302825157 505.86311823163106 1035.1586878349012 505.86311823163106L1035.1586878349012 505.86311823163106Q1045.6646406929613 506.07145157442545 1053.700355343602 502.232165685786Q1061.7360699942426 498.36311789103314 1070.0694037060182 490.8631175504351L1070.0694037060182 490.8631175504351ZM1188.5813138499116 492.14287951331494L1197.5694094961839 505.86311823163106Q1177.0039323717665 523.869071430289 1150.664645461333 523.869071430289L1150.664645461333 523.869071430289Q1136.2896448085203 523.869071430289 1123.4325013674952 517.8571663953652Q1110.57535792647 511.8750232665549 1102.658690900283 500.29764178840963Q1094.712261967983 488.7202603102643 1094.712261967983 472.85716435177727L1094.712261967983 472.85716435177727Q1094.712261967983 455.9226397732048 1102.8670242430776 443.3035915810876Q1111.0217865181721 430.6547814828569 1124.0872633019917 423.898828795096Q1137.1527400858113 417.1428761073351 1151.4979788325106 417.1428761073351L1151.4979788325106 417.1428761073351Q1164.1467889307414 417.1428761073351 1174.1170274787585 421.2202572448824Q1184.0872660267758 425.29763838242974 1189.7717900944513 432.5893053802333Q1195.426552256013 439.8512104719234 1195.426552256013 449.2857347098979L1195.426552256013 449.2857347098979Q1195.426552256013 463.42264011380286 1183.3432183739385 471.25002142164914Q1171.2301225857505 479.0774027294954 1154.2955980071781 479.0774027294954L1154.2955980071781 479.0774027294954Q1143.3729784635293 479.0774027294954 1133.938454225555 476.8154978648707Q1124.5039299875805 474.5833549063594 1114.8610724068117 470.29764042601767L1114.8610724068117 470.29764042601767L1114.8610724068117 472.2321643233941Q1114.8610724068117 482.29168858975174 1119.6825011971962 490.0000222731441Q1124.5039299875805 497.7083559565365 1132.6586922626752 501.7857370940838Q1140.7836926316563 505.86311823163106 1150.4265502124251 505.86311823163106L1150.4265502124251 505.86311823163106Q1172.301551205836 505.86311823163106 1188.5813138499116 492.14287951331494L1188.5813138499116 492.14287951331494ZM1153.0158360442983 433.86906734311316Q1141.4384545661528 433.86906734311316 1131.4682160181358 440.5059724064201Q1121.4979774701187 447.142877469727 1117.212262989777 458.5119256050779L1117.212262989777 458.5119256050779Q1133.5217875399662 464.28573539109385 1149.801550184042 464.28573539109385L1149.801550184042 464.28573539109385Q1160.5158363848961 464.28573539109385 1167.4801224154514 460.32740187800044Q1174.444408446007 456.3690683649071 1174.444408446007 449.2857347098979L1174.444408446007 449.2857347098979Q1174.444408446007 442.4404963037966 1168.432503411083 438.1547818234548Q1162.4503602822726 433.86906734311316 1153.0158360442983 433.86906734311316L1153.0158360442983 433.86906734311316ZM1336.0217967361118 503.5119276486659L1340.515844559248 518.9285950154506Q1337.509892041786 520.6547855700327 1333.2241775614443 521.8154999084586Q1328.9384630811026 523.0059761529978 1324.236081915172 523.0059761529978L1324.236081915172 523.0059761529978Q1316.289652982872 523.0059761529978 1310.515843196856 518.8393092971102Q1304.7122715047265 514.6428805351088 1302.5694142645557 506.72621350892217L1302.5694142645557 506.72621350892217Q1293.9979853038724 514.4345471923145 1284.4741753475573 519.1369283582451Q1274.9503653912425 523.869071430289 1263.3729839130972 523.869071430289L1263.3729839130972 523.869071430289Q1250.3075071292778 523.869071430289 1239.0575066183808 517.232166366982Q1227.8075061074837 510.5654993975616 1221.1408391380633 498.69049885828144Q1214.5039340747564 486.78573641288784 1214.5039340747564 471.7857357316919L1214.5039340747564 471.7857357316919Q1214.5039340747564 456.1607350221127 1221.4682201053115 443.60121064222244Q1228.4325061358668 431.0714481684456 1240.4265542996009 424.1071621378904Q1252.4503643694484 417.1428761073351 1267.0039364589422 417.1428761073351L1267.0039364589422 417.1428761073351Q1285.6646515920968 417.1428761073351 1301.289652301676 430.8631148256513L1301.289652301676 430.8631148256513L1301.289652301676 390.80358919690167L1278.5813179370875 390.80358919690167L1278.5813179370875 373.8690646183292L1321.8551294260933 373.8690646183292L1321.8551294260933 494.9404986879825Q1321.8551294260933 505.20835629713446 1328.9384630811026 505.20835629713446L1328.9384630811026 505.20835629713446Q1333.640844247033 505.20835629713446 1336.0217967361118 503.5119276486659L1336.0217967361118 503.5119276486659ZM1236.3789350681673 471.57740238889744Q1236.3789350681673 486.99406975568223 1245.039649747191 496.42859399365665Q1253.7301263323284 505.86311823163106 1267.658698393439 505.86311823163106L1267.658698393439 505.86311823163106Q1283.7301276947203 505.86311823163106 1301.289652301676 491.2797842360239L1301.289652301676 491.2797842360239L1301.289652301676 446.9345441269326Q1286.2896516204798 434.94049596319854 1271.7360795309862 434.94049596319854L1271.7360795309862 434.94049596319854Q1261.6467933585152 434.94049596319854 1253.5217929895339 439.64287712912903Q1245.3670307144394 444.375020201173 1240.8729828913033 452.70835391294855Q1236.3789350681673 461.0714495308376 1236.3789350681673 471.57740238889744L1236.3789350681673 471.57740238889744ZM1447.003944633294 492.14287951331494L1456.0218021856795 505.86311823163106Q1435.4265631551486 523.869071430289 1409.0872762447152 523.869071430289L1409.0872762447152 523.869071430289Q1394.7122755919024 523.869071430289 1381.8551321508774 517.8571663953652Q1368.9979887098523 511.8750232665549 1361.0813216836652 500.29764178840963Q1353.1646546574786 488.7202603102643 1353.1646546574786 472.85716435177727L1353.1646546574786 472.85716435177727Q1353.1646546574786 455.9226397732048 1361.2896550264597 443.3035915810876Q1369.4444173015545 430.6547814828569 1382.5098940853738 423.898828795096Q1395.5753708691934 417.1428761073351 1409.9503715220062 417.1428761073351L1409.9503715220062 417.1428761073351Q1422.5694197141236 417.1428761073351 1432.5396582621406 421.2202572448824Q1442.509896810158 425.29763838242974 1448.1944208778334 432.5893053802333Q1453.8789449455087 439.8512104719234 1453.8789449455087 449.2857347098979L1453.8789449455087 449.2857347098979Q1453.8789449455087 463.42264011380286 1441.7658491573209 471.25002142164914Q1429.6527533691326 479.0774027294954 1412.71822879056 479.0774027294954L1412.71822879056 479.0774027294954Q1401.7956092469115 479.0774027294954 1392.3610850089372 476.8154978648707Q1382.9265607709626 474.5833549063594 1373.2837031901938 470.29764042601767L1373.2837031901938 470.29764042601767L1373.2837031901938 472.2321643233941Q1373.2837031901938 482.29168858975174 1378.105131980578 490.0000222731441Q1382.9265607709626 497.7083559565365 1391.0813230460574 501.7857370940838Q1399.236085321152 505.86311823163106 1408.878942901921 505.86311823163106L1408.878942901921 505.86311823163106Q1430.724181989218 505.86311823163106 1447.003944633294 492.14287951331494L1447.003944633294 492.14287951331494ZM1411.4384668276805 433.86906734311316Q1399.8610853495352 433.86906734311316 1389.8908468015181 440.5059724064201Q1379.9503701596143 447.142877469727 1375.6646556792728 458.5119256050779L1375.6646556792728 458.5119256050779Q1391.9444183233484 464.28573539109385 1408.224180967424 464.28573539109385L1408.224180967424 464.28573539109385Q1418.9384671682785 464.28573539109385 1425.9027531988338 460.32740187800044Q1432.867039229389 456.3690683649071 1432.867039229389 449.2857347098979L1432.867039229389 449.2857347098979Q1432.867039229389 442.4404963037966 1426.855134194465 438.1547818234548Q1420.872991065655 433.86906734311316 1411.4384668276805 433.86906734311316L1411.4384668276805 433.86906734311316ZM1597.0039514452535 503.9285943342547L1617.1527618840823 503.9285943342547L1617.1527618840823 520.8631189128271L1557.5694258448873 520.8631189128271L1557.5694258448873 503.9285943342547L1576.2301409780418 503.9285943342547L1576.2301409780418 462.142878150923Q1576.2301409780418 450.3571633299833 1570.3372835675718 443.60121064222244Q1564.4444261571018 436.87501986057504 1553.5218066134535 436.87501986057504L1553.5218066134535 436.87501986057504Q1534.8610914802987 436.87501986057504 1514.087281013087 460.4464495024544L1514.087281013087 460.4464495024544L1514.087281013087 503.9285943342547L1532.7182342401281 503.9285943342547L1532.7182342401281 520.8631189128271L1470.3670409323788 520.8631189128271L1470.3670409323788 503.9285943342547L1493.0753752969674 503.9285943342547L1493.0753752969674 436.87501986057504L1470.3670409323788 436.87501986057504L1470.3670409323788 419.9404952820026L1514.087281013087 419.9404952820026L1514.087281013087 443.72025826667635Q1526.081329176821 430.4464481400625 1537.1229963449236 423.898828795096Q1548.1646635130262 417.3512094501295 1560.7837117051436 417.3512094501295L1560.7837117051436 417.3512094501295Q1578.1646648754183 417.3512094501295 1587.5694272072792 428.511924242686Q1597.0039514452535 439.64287712912903 1597.0039514452535 461.51787812253986L1597.0039514452535 461.51787812253986L1597.0039514452535 503.9285943342547ZM1703.521813425413 497.94645120544436L1710.7837185171031 513.7797852578178Q1702.8670514909165 518.5119283298618 1695.2480035258643 521.0714522556215Q1687.6587174669262 523.6607380874946 1677.8075265433629 523.6607380874946L1677.8075265433629 523.6607380874946Q1661.2896686503793 523.6607380874946 1651.55752535127 513.2440709477751Q1641.7956201460472 502.8571657141692 1641.7956201460472 483.5714505526315L1641.7956201460472 483.5714505526315L1641.7956201460472 436.87501986057504L1619.295619124253 436.87501986057504L1619.295619124253 419.9404952820026L1641.7956201460472 419.9404952820026L1641.7956201460472 391.8750178169871L1662.8075258621668 391.8750178169871L1662.8075258621668 419.9404952820026L1696.2301464276095 419.9404952820026L1696.2301464276095 436.87501986057504L1662.8075258621668 436.87501986057504L1662.8075258621668 483.7797838954259Q1662.8075258621668 494.7321653451881 1667.7182403708919 499.8512131967073Q1672.6587167857301 505.00002295434007 1681.0218124036192 505.00002295434007L1681.0218124036192 505.00002295434007Q1687.0039555324295 505.00002295434007 1692.3610986328565 503.18454668141754Q1697.7182417332838 501.369070408495 1703.521813425413 497.94645120544436L1703.521813425413 497.94645120544436ZM1810.87300877675 492.14287951331494L1819.8611044230222 505.86311823163106Q1799.2956272986046 523.869071430289 1772.926578482058 523.869071430289L1772.926578482058 523.869071430289Q1758.5813397353588 523.869071430289 1745.7241962943333 517.8571663953652Q1732.8670528533087 511.8750232665549 1724.9503858271216 500.29764178840963Q1717.0039568948212 488.7202603102643 1717.0039568948212 472.85716435177727L1717.0039568948212 472.85716435177727Q1717.0039568948212 455.9226397732048 1725.1587191699161 443.3035915810876Q1733.2837195388972 430.6547814828569 1746.3789582288302 423.898828795096Q1759.4444350126498 417.1428761073351 1773.789673759349 417.1428761073351L1773.789673759349 417.1428761073351Q1786.43848385758 417.1428761073351 1796.4087224055968 421.2202572448824Q1806.378960953614 425.29763838242974 1812.033723115176 432.5893053802333Q1817.7182471828517 439.8512104719234 1817.7182471828517 449.2857347098979L1817.7182471828517 449.2857347098979Q1817.7182471828517 463.42264011380286 1805.6051513946634 471.25002142164914Q1793.521817512589 479.0774027294954 1776.5872929340164 479.0774027294954L1776.5872929340164 479.0774027294954Q1765.6646733903679 479.0774027294954 1756.2301491523933 476.8154978648707Q1746.7956249144188 474.5833549063594 1737.1527673336502 470.29764042601767L1737.1527673336502 470.29764042601767L1737.1527673336502 472.2321643233941Q1737.1527673336502 482.29168858975174 1741.9741961240345 490.0000222731441Q1746.7956249144188 497.7083559565365 1754.9503871895133 501.7857370940838Q1763.0753875584949 505.86311823163106 1772.7182451392634 505.86311823163106L1772.7182451392634 505.86311823163106Q1794.5932461326745 505.86311823163106 1810.87300877675 492.14287951331494L1810.87300877675 492.14287951331494ZM1775.3075309711369 433.86906734311316Q1763.7301494929914 433.86906734311316 1753.759910944974 440.5059724064201Q1743.7896723969568 447.142877469727 1739.5039579166153 458.5119256050779L1739.5039579166153 458.5119256050779Q1755.7837205606913 464.28573539109385 1772.0932451108804 464.28573539109385L1772.0932451108804 464.28573539109385Q1782.8075313117345 464.28573539109385 1789.7718173422898 460.32740187800044Q1796.736103372845 456.3690683649071 1796.736103372845 449.2857347098979L1796.736103372845 449.2857347098979Q1796.736103372845 442.4404963037966 1790.7241983379215 438.1547818234548Q1784.7122933029975 433.86906734311316 1775.3075309711369 433.86906734311316L1775.3075309711369 433.86906734311316Z " fill="#ffffff" transform="matrix(0.48080591334928974,0,0,0.48080591334928974,0,84.18110247753037)"/></g></svg>