<svg xmlns="http://www.w3.org/2000/svg" version="1.1" xmlns:xlink="http://www.w3.org/1999/xlink" xmlns:svgjs="http://svgjs.dev/svgjs" width="100%" height="100%" viewBox="0 0 1000 600"><rect width="1000" height="600" x="0" y="0" fill="#ff5555"/><g><circle r="166.66666666666666" cx="371.75930277506507" cy="393.98162402772687" fill="#ffffff" transform="matrix(0.6094803496178935,0,0,0.6094803496178935,0,59.875933941538634)"/><path d="M375.4963292026709 468.98164317950426L375.4963292026709 468.98164317950426Q347.8510807868381 468.98164317950426 332.47016491456367 450.19557144807715Q317.1181062953329 431.3806424636064 317.1181062953329 394.8185028572805L317.1181062953329 394.8185028572805Q317.1181062953329 358.2563632509546 332.47016491456367 338.6045739282175Q347.8510807868381 318.9816418585241 375.4963292026709 318.9816418585241L375.4963292026709 318.9816418585241Q393.76297037931204 318.9816418585241 406.1427319350451 327.2925307351001Q418.4936362377345 335.60341961167614 425.3616624621272 350.7823347126449L425.3616624621272 350.7823347126449L411.2216084707305 359.2952243605267Q406.86416326113675 348.0697529265402 397.9184148176 341.3171557143222Q389.00152362710696 334.5645585021042 375.4963292026709 334.5645585021042L375.4963292026709 334.5645585021042Q366.14657921652287 334.5645585021042 358.7591224373441 338.0851433734315Q351.4005229112091 341.6345854978025 346.29278912248003 348.1851819387149Q341.2139125867947 354.7069211265836 338.50133080069 363.768098582295Q335.817606267629 372.80041878496274 335.817606267629 384.02589021894914L335.817606267629 384.02589021894914L335.817606267629 405.6111154956119Q335.817606267629 428.0620583635847 346.2062173633491 440.73039244975445Q356.59482845906916 453.3987265359242 375.4963292026709 453.3987265359242L375.4963292026709 453.3987265359242Q389.4055251697183 453.3987265359242 398.7552751558664 446.24212778109484Q408.1050251420144 439.0855290262654 412.46247035160815 427.2251980253184L412.46247035160815 427.2251980253184L426.4005235716992 435.96894569754943Q419.5324973473065 451.32100431678015 406.6621624898311 460.15132374814226Q393.76297037931204 468.98164317950426 375.4963292026709 468.98164317950426Z " fill="#ff5555" transform="matrix(0.6094803496178935,0,0,0.6094803496178935,0,59.875933941538634)"/><path d="M706.7334570506848 466.59893173417976L621.759314977096 466.59893173417976L621.759314977096 327.34883781117435L706.7334570506848 327.34883781117435L706.7334570506848 342.11610801828976L638.4937074819696 342.11610801828976L638.4937074819696 388.8006301552305L702.7438005594566 388.8006301552305L702.7438005594566 403.5679003623458L638.4937074819696 403.5679003623458L638.4937074819696 451.8316615270644L706.7334570506848 451.8316615270644L706.7334570506848 466.59893173417976ZM741.449009713941 466.59893173417976L723.6894971384045 466.59893173417976L761.7851754400624 414.7333973482136L725.2687361661824 363.6713354500642L744.0256628645259 363.6713354500642L770.1523716924992 401.96095538671227L770.7619025453257 401.96095538671227L797.8860254961062 363.6713354500642L815.6455380716427 363.6713354500642L779.3507463806086 413.54204159041626L816.4490105594595 466.59893173417976L797.6920838611159 466.59893173417976L770.955844180316 426.3144835519176L770.3740192753453 426.3144835519176L741.449009713941 466.59893173417976ZM873.8834404644316 468.9816432497744L873.8834404644316 468.9816432497744Q863.3274743313905 468.9816432497744 854.8494542875305 465.2136343413922Q846.3714342436707 461.4179194851543 840.2761257154054 454.325196834082Q834.2085231349959 447.2601801308654 830.9115153401615 437.3691567463623Q827.6145075453271 427.5058393097149 827.6145075453271 415.1212806181941L827.6145075453271 415.1212806181941Q827.6145075453271 402.95836950951934 830.9115153401615 392.9842282814489Q834.2085231349959 383.01008705337847 840.2761257154054 375.9450703501619Q846.3714342436707 368.85234769908965 854.8494542875305 365.05663284285174Q863.3274743313905 361.26091798661383 873.8834404644316 361.26091798661383L873.8834404644316 361.26091798661383Q884.2731709103383 361.26091798661383 892.4464255277849 365.05663284285174Q900.6196801452315 368.85234769908965 906.4102232470835 375.52948113232566Q912.2007663489355 382.2066145655617 915.2761265609239 391.4049892536711Q918.3791927207681 400.5756579939247 918.3791927207681 411.5472133448022L918.3791927207681 411.5472133448022L918.3791927207681 419.11093710942225L844.3766059980567 419.11093710942225L844.3766059980567 423.90406608846723Q844.3766059980567 430.498081678136 846.454552087238 436.17780098856497Q848.5602041242751 441.85752029899396 852.4390368240802 446.0411184252124Q856.3455754717411 450.2524224992866 862.0252947821701 452.6351340148812Q867.7050140925991 455.01784553047577 874.8808545872387 455.01784553047577L874.8808545872387 455.01784553047577Q884.6610541803188 455.01784553047577 891.9477184663814 450.44636413427685Q899.2343827524439 445.84717679022214 903.2240392436721 437.28603890279504L903.2240392436721 437.28603890279504L914.5834778645301 445.4592935202416Q909.5964072504948 456.01525965328284 899.0404411174536 462.49845145152864Q888.4567690365567 468.9816432497744 873.8834404644316 468.9816432497744ZM873.8834404644316 374.64289080094164L873.8834404644316 374.64289080094164Q867.3171308226185 374.64289080094164 861.9144709907471 376.942484472969Q856.5395171067314 379.21437219714056 852.6606844069263 383.42567627121474Q848.7541457592653 387.6092743974332 846.565375878661 393.2889937078622Q844.3766059980567 398.96871301829117 844.3766059980567 405.7566702429502L844.3766059980567 405.7566702429502L844.3766059980567 407.1419676357378L901.2292109980581 407.1419676357378L901.2292109980581 404.95319775513343Q901.2292109980581 391.1833416708251 893.7486050770053 382.92696920981126Q886.2679991559525 374.64289080094164 873.8834404644316 374.64289080094164ZM1010.5291752889964 466.59893173417976L1010.5291752889964 449.8368332814503L1009.7534087490354 449.8368332814503Q1000.3610924259358 468.9816432497744 979.6093374819782 468.9816432497744L979.6093374819782 468.9816432497744Q970.0507854717439 468.9816432497744 962.2654141242779 465.2136343413922Q954.4800427768118 461.4179194851543 948.994265101373 454.436020625505Q943.5084874259344 447.45412176585575 940.6270688489362 437.4799805377853Q937.7179443240823 427.5058393097149 937.7179443240823 415.1212806181941L937.7179443240823 415.1212806181941Q937.7179443240823 402.7644278745291 940.6270688489362 392.79028664645864Q943.5084874259344 382.81614541838826 948.994265101373 375.8342465587389Q954.4800427768118 368.85234769908965 962.2654141242779 365.05663284285174Q970.0507854717439 361.26091798661383 979.6093374819782 361.26091798661383L979.6093374819782 361.26091798661383Q990.3869511978653 361.26091798661383 998.0614987539084 365.9709291220915Q1005.7637522578073 370.65323430971347 1009.7534087490354 380.43343390279364L1009.7534087490354 380.43343390279364L1010.5291752889964 380.43343390279364L1010.5291752889964 318.9816415587375L1026.487801253909 318.9816415587375L1026.487801253909 466.59893173417976L1010.5291752889964 466.59893173417976ZM984.0145831910424 454.62996226049523L984.0145831910424 454.62996226049523Q989.3895370750582 454.62996226049523 994.2934898455262 453.24466486770774Q999.1697366681384 451.8316615270644 1002.7715098893862 449.1441845850565Q1006.345577162778 446.4567076430487 1008.4512291998151 442.55016899538776Q1010.5291752889964 438.6713362955826 1010.5291752889964 433.6842656815474L1010.5291752889964 433.6842656815474L1010.5291752889964 395.39464574489926Q1010.5291752889964 391.1833416708251 1008.4512291998151 387.4984506060102Q1006.345577162778 383.8135595411953 1002.7715098893862 381.20920044275465Q999.1697366681384 378.6325472921698 994.2934898455262 377.13642610795927Q989.3895370750582 375.64030492374866 984.0145831910424 375.64030492374866L984.0145831910424 375.64030492374866Q970.4386687417245 375.64030492374866 962.6532973942584 384.11832496760854Q954.895631994648 392.5963450114684 954.895631994648 406.3662010957767L954.895631994648 406.3662010957767L954.895631994648 423.90406608846723Q954.895631994648 437.6739221727756 962.6532973942584 446.1519422166354Q970.4386687417245 454.62996226049523 984.0145831910424 454.62996226049523ZM1099.1050905838329 468.9816432497744L1099.1050905838329 468.9816432497744Q1088.5491244507916 468.9816432497744 1080.071104406932 465.2136343413922Q1071.593084363072 461.4179194851543 1065.4977758348068 454.325196834082Q1059.4024673065414 447.2601801308654 1056.1331654595629 437.3691567463623Q1052.8361576647285 427.5058393097149 1052.8361576647285 415.1212806181941L1052.8361576647285 415.1212806181941Q1052.8361576647285 402.95836950951934 1056.1331654595629 392.9842282814489Q1059.4024673065414 383.01008705337847 1065.4977758348068 375.9450703501619Q1071.593084363072 368.85234769908965 1080.071104406932 365.05663284285174Q1088.5491244507916 361.26091798661383 1099.1050905838329 361.26091798661383L1099.1050905838329 361.26091798661383Q1109.4948210297396 361.26091798661383 1117.668075647186 365.05663284285174Q1125.8413302646327 368.85234769908965 1131.6318733664848 375.52948113232566Q1137.422416468337 382.2066145655617 1140.4977766803254 391.4049892536711Q1143.6008428401692 400.5756579939247 1143.6008428401692 411.5472133448022L1143.6008428401692 411.5472133448022L1143.6008428401692 419.11093710942225L1069.5982561174578 419.11093710942225L1069.5982561174578 423.90406608846723Q1069.5982561174578 430.498081678136 1071.6762022066391 436.17780098856497Q1073.7818542436762 441.85752029899396 1077.6606869434816 446.0411184252124Q1081.5672255911425 450.2524224992866 1087.2469449015714 452.6351340148812Q1092.9266642120003 455.01784553047577 1100.10250470664 455.01784553047577L1100.10250470664 455.01784553047577Q1109.8827042997202 455.01784553047577 1117.1693685857826 450.44636413427685Q1124.4560328718453 445.84717679022214 1128.4456893630736 437.28603890279504L1128.4456893630736 437.28603890279504L1139.8051279839315 445.4592935202416Q1134.818057369896 456.01525965328284 1124.2343852889992 462.49845145152864Q1113.6784191559582 468.9816432497744 1099.1050905838329 468.9816432497744ZM1099.1050905838329 374.64289080094164L1099.1050905838329 374.64289080094164Q1092.53878094202 374.64289080094164 1087.1361211101485 376.942484472969Q1081.7611672261328 379.21437219714056 1077.8546285784719 383.42567627121474Q1073.9757958786665 387.6092743974332 1071.7870259980623 393.2889937078622Q1069.5982561174578 398.96871301829117 1069.5982561174578 405.7566702429502L1069.5982561174578 405.7566702429502L1069.5982561174578 407.1419676357378L1126.4508611174592 407.1419676357378L1126.4508611174592 404.95319775513343Q1126.4508611174592 391.1833416708251 1118.9702551964065 382.92696920981126Q1111.4896492753537 374.64289080094164 1099.1050905838329 374.64289080094164ZM1185.8801192680457 466.59893173417976L1169.921493303133 466.59893173417976L1169.921493303133 363.6713354500642L1185.8801192680457 363.6713354500642L1185.8801192680457 380.43343390279364L1186.6835917558624 380.43343390279364Q1190.4793066121001 371.6506484325205 1197.3503816803266 366.469636183495Q1204.2491626964086 361.26091798661383 1215.8025429522568 361.26091798661383L1215.8025429522568 361.26091798661383Q1231.7611689171695 361.26091798661383 1241.042661448846 371.5398246410975Q1250.3241539805229 381.8187312955812 1250.3241539805229 400.5756579939247L1250.3241539805229 400.5756579939247L1250.3241539805229 466.59893173417976L1234.3655280156102 466.59893173417976L1234.3655280156102 403.3739587273556Q1234.3655280156102 375.64030492374866 1211.0094139732118 375.64030492374866L1211.0094139732118 375.64030492374866Q1206.2439909420227 375.64030492374866 1201.755627389391 376.831660681546Q1197.2672638367594 378.0230164393433 1193.6654906155118 380.43343390279364Q1190.063717394264 382.81614541838826 1187.9857713050828 386.5010364832031Q1185.8801192680457 390.185927548018 1185.8801192680457 395.17299816205326L1185.8801192680457 395.17299816205326L1185.8801192680457 466.59893173417976ZM1325.9336856788677 466.59893173417976L1305.985403222727 466.59893173417976Q1297.5905010224342 466.59893173417976 1293.2960791047929 461.91662654655784Q1289.0293631350073 457.2343213589359 1289.0293631350073 449.6428916464601L1289.0293631350073 449.6428916464601L1289.0293631350073 377.63513316936275L1272.0733230472874 377.63513316936275L1272.0733230472874 363.6713354500642L1281.6318750575217 363.6713354500642Q1286.812887306547 363.6713354500642 1288.724597708594 361.5656834130271Q1290.6086021627852 359.48773732384575 1290.6086021627852 354.2790191269645L1290.6086021627852 354.2790191269645L1290.6086021627852 335.13420915864043L1304.98798909992 335.13420915864043L1304.98798909992 363.6713354500642L1327.5129247066457 363.6713354500642L1327.5129247066457 377.63513316936275L1304.98798909992 377.63513316936275L1304.98798909992 452.6351340148812L1325.9336856788677 452.6351340148812L1325.9336856788677 466.59893173417976ZM1391.153486931306 468.9816432497744L1391.153486931306 468.9816432497744Q1380.5698148504089 468.9816432497744 1372.0917948065492 465.2136343413922Q1363.6137747626894 461.4179194851543 1357.5461721822799 454.325196834082Q1351.4508636540145 447.2601801308654 1348.15385585918 437.3691567463623Q1344.8845540122015 427.5058393097149 1344.8845540122015 415.1212806181941L1344.8845540122015 415.1212806181941Q1344.8845540122015 402.95836950951934 1348.15385585918 392.9842282814489Q1351.4508636540145 383.01008705337847 1357.5461721822799 375.9450703501619Q1363.6137747626894 368.85234769908965 1372.0917948065492 365.05663284285174Q1380.5698148504089 361.26091798661383 1391.153486931306 361.26091798661383L1391.153486931306 361.26091798661383Q1401.515511429357 361.26091798661383 1409.7164719946595 365.05663284285174Q1417.889726612106 368.85234769908965 1423.6802697139578 375.52948113232566Q1429.4431068679542 382.2066145655617 1432.5461730277982 391.4049892536711Q1435.6492391876423 400.5756579939247 1435.6492391876423 411.5472133448022L1435.6492391876423 411.5472133448022L1435.6492391876423 419.11093710942225L1361.6189465170753 419.11093710942225L1361.6189465170753 423.90406608846723Q1361.6189465170753 430.498081678136 1363.7245985541124 436.17780098856497Q1365.8302505911495 441.85752029899396 1369.7090832909548 446.0411184252124Q1373.58791599076 450.2524224992866 1379.2953412490447 452.6351340148812Q1384.9750605594736 455.01784553047577 1392.150901054113 455.01784553047577L1392.150901054113 455.01784553047577Q1401.9311006471933 455.01784553047577 1409.2177649332557 450.44636413427685Q1416.4767232714626 445.84717679022214 1420.4663797626908 437.28603890279504L1420.4663797626908 437.28603890279504L1431.8535243314045 445.4592935202416Q1426.8664537173695 456.01525965328284 1416.2827816364725 462.49845145152864Q1405.7268155034312 468.9816432497744 1391.153486931306 468.9816432497744ZM1391.153486931306 374.64289080094164L1391.153486931306 374.64289080094164Q1384.5594713416372 374.64289080094164 1379.1845174576215 376.942484472969Q1373.8095635736058 379.21437219714056 1369.903024925945 383.42567627121474Q1366.0241922261398 387.6092743974332 1363.8354223455353 393.2889937078622Q1361.6189465170753 398.96871301829117 1361.6189465170753 405.7566702429502L1361.6189465170753 405.7566702429502L1361.6189465170753 407.1419676357378L1418.4715515170767 407.1419676357378L1418.4715515170767 404.95319775513343Q1418.4715515170767 391.1833416708251 1410.9909455960237 382.92696920981126Q1403.510339674971 374.64289080094164 1391.153486931306 374.64289080094164Z " fill="#ffffff" transform="matrix(0.6094803496178935,0,0,0.6094803496178935,0,59.875933941538634)"/></g></svg>